<svg xmlns="http://www.w3.org/2000/svg" width="285.3" height="273.417" viewBox="0 0 285.3 273.417">
  <path id="social-media_2_" data-name="social-media (2)" d="M142.65.5C63.836.5,0,63.266,0,140.677c0,61.946,40.869,114.477,97.537,133,7.133,1.319,9.748-3.019,9.748-6.74,0-3.329-.119-12.149-.178-23.834-39.68,8.452-48.049-18.806-48.049-18.806-6.491-16.179-15.87-20.506-15.87-20.506-12.922-8.69,1-8.511,1-8.511,14.324.975,21.849,14.443,21.849,14.443,12.72,21.433,33.392,15.24,41.547,11.662,1.284-9.07,4.957-15.24,9.035-18.747-31.68-3.507-64.977-15.561-64.977-69.268A53.556,53.556,0,0,1,66.32,95.755c-1.6-3.542-6.419-17.8,1.248-37.1,0,0,11.947-3.756,39.229,14.372a136.772,136.772,0,0,1,71.325,0c27.1-18.128,39.05-14.372,39.05-14.372,7.667,19.305,2.853,33.558,1.426,37.1a53.772,53.772,0,0,1,14.622,37.612c0,53.85-33.344,65.7-65.084,69.15,4.993,4.208,9.629,12.8,9.629,25.939,0,18.758-.178,33.832-.178,38.385,0,3.673,2.5,8.06,9.807,6.657,57.072-18.4,97.905-70.968,97.905-132.819C285.3,63.266,221.428.5,142.65.5Z" transform="translate(0 -0.5)" fill="#489BC3"/>
</svg>
