<svg xmlns="http://www.w3.org/2000/svg" width="512.417" height="512.418" viewBox="0 0 512.417 512.418">
  <path id="seo-and-web_1_" data-name="seo-and-web (1)" d="M437.335,75.082c-100.1-100.1-262.136-100.118-362.252,0-100.1,100.1-100.118,262.136,0,362.253,100.1,100.1,262.136,100.117,362.252,0S537.452,175.2,437.335,75.082ZM426.629,400.821a256.757,256.757,0,0,0-38.264-28.335c8.919-30.809,14.2-64.712,15.452-99.954h75.309a221.479,221.479,0,0,1-52.5,128.289ZM33.291,272.532H108.6c1.249,35.242,6.533,69.145,15.452,99.954a256.759,256.759,0,0,0-38.264,28.335A221.486,221.486,0,0,1,33.291,272.532ZM85.789,111.6a256.759,256.759,0,0,0,38.264,28.335c-8.919,30.809-14.2,64.712-15.452,99.954H33.291A221.485,221.485,0,0,1,85.789,111.6Zm154.1,31.709A221.769,221.769,0,0,1,163.8,124.027c13.84-35.639,39.354-78.384,76.088-88.977Zm0,32.708v63.873H141.261a384.6,384.6,0,0,1,12.379-84.632A254.436,254.436,0,0,0,239.886,176.013Zm0,96.519V336.4a254.437,254.437,0,0,0-86.246,20.759,384.6,384.6,0,0,1-12.379-84.632Zm0,96.581V477.367c-36.732-10.593-62.246-53.333-76.088-88.976A221.77,221.77,0,0,1,239.886,369.113Zm32.646,0a221.769,221.769,0,0,1,76.088,19.278c-13.841,35.64-39.354,78.383-76.088,88.976Zm0-32.708V272.532h98.625a384.6,384.6,0,0,1-12.379,84.632A254.437,254.437,0,0,0,272.532,336.4Zm0-96.519V176.013a254.436,254.436,0,0,0,86.246-20.759,384.6,384.6,0,0,1,12.379,84.632Zm0-96.581V35.051c36.734,10.593,62.248,53.338,76.088,88.977A221.791,221.791,0,0,1,272.532,143.3Zm73.32-91.957A222.523,222.523,0,0,1,403.716,88.3a224.357,224.357,0,0,1-26.26,19.931c-8.139-20.152-18.536-39.736-31.6-56.882ZM134.961,108.23A224.442,224.442,0,0,1,108.7,88.3a222.523,222.523,0,0,1,57.864-36.951C153.5,68.5,143.1,88.08,134.961,108.23Zm0,295.958c8.138,20.151,18.537,39.736,31.6,56.882A222.523,222.523,0,0,1,108.7,424.119,224.356,224.356,0,0,1,134.962,404.188Zm242.494,0a224.46,224.46,0,0,1,26.26,19.93,222.522,222.522,0,0,1-57.864,36.951c13.067-17.144,23.465-36.729,31.6-56.881Zm26.362-164.3c-1.249-35.242-6.533-69.146-15.452-99.954A256.811,256.811,0,0,0,426.63,111.6a221.486,221.486,0,0,1,52.5,128.289Z" transform="translate(0 0.001)" fill="#489BC3"/>
</svg>
